<?xml version="1.0" standalone="no"?>
<!DOCTYPE svg PUBLIC "-//W3C//DTD SVG 20010904//EN"
 "http://www.w3.org/TR/2001/REC-SVG-20010904/DTD/svg10.dtd">
<svg version="1.0" xmlns="http://www.w3.org/2000/svg"
 width="770.000000pt" height="770.000000pt" viewBox="0 0 770.000000 770.000000"
 preserveAspectRatio="xMidYMid meet">
<metadata>
Created by potrace 1.14, written by Peter Selinger 2001-2017
</metadata>
<g transform="translate(0.000000,770.000000) scale(0.100000,-0.100000)"
fill="#000000" stroke="none">
<path d="M9 6200 c-1 -3 0 -9 2 -15 1 -5 3 -1058 3 -2340 l1 -2330 130 0 130
0 5 2100 5 2099 33 -59 c18 -33 43 -78 56 -100 13 -22 207 -357 431 -745 224
-388 434 -749 466 -803 33 -54 59 -101 59 -103 0 -2 11 -21 23 -42 13 -20 35
-57 49 -82 39 -68 166 -288 203 -350 18 -30 44 -75 57 -100 53 -96 390 -675
398 -683 4 -4 25 23 48 60 56 94 328 566 365 633 16 30 33 60 37 65 4 6 41 69
82 140 98 169 225 389 248 429 11 17 25 42 33 56 7 14 63 111 124 215 60 105
153 264 205 355 52 91 188 326 302 524 114 197 216 372 225 390 10 17 41 70
70 118 l51 87 0 240 c0 206 -2 241 -15 241 -17 0 -14 3 -122 -185 -84 -147
-257 -446 -635 -1100 -124 -214 -312 -541 -418 -725 -191 -332 -283 -491 -395
-685 -32 -55 -90 -155 -128 -223 -39 -67 -71 -121 -72 -120 -3 4 -317 545
-348 599 -13 24 -75 131 -136 237 -61 106 -120 207 -130 225 -10 17 -44 77
-76 132 -145 252 -197 341 -208 360 -23 40 -622 1077 -739 1278 -76 131 -126
207 -137 208 -71 4 -281 3 -282 -1z"/>
<path d="M7448 6182 l-28 -3 -2 -2097 -3 -2097 -26 45 c-15 25 -36 61 -47 80
-10 19 -111 193 -222 385 -112 193 -310 535 -440 760 -130 226 -295 509 -365
630 -70 121 -137 236 -147 255 -11 19 -61 104 -110 189 -50 85 -100 172 -113
195 -12 23 -71 124 -130 226 -59 102 -123 213 -143 247 -20 35 -39 59 -43 55
-6 -6 -85 -143 -552 -952 -72 -123 -138 -238 -148 -255 -10 -16 -24 -41 -32
-55 -7 -14 -147 -257 -311 -540 -164 -283 -359 -621 -434 -750 -74 -129 -173
-300 -220 -380 l-84 -144 0 -231 c0 -126 1 -236 1 -242 3 -39 37 5 126 160 54
94 179 312 278 482 99 171 191 330 205 355 14 25 36 62 49 82 12 21 23 39 23
42 0 2 42 75 93 163 51 87 96 165 100 173 4 8 17 31 28 50 24 39 196 336 226
390 11 19 71 123 133 230 61 107 122 213 135 235 42 75 155 270 165 285 6 8
13 22 17 30 4 8 27 49 51 90 51 85 74 126 110 190 46 85 33 99 224 -232 97
-167 185 -320 197 -340 34 -62 49 -87 258 -448 236 -406 418 -721 445 -770 11
-19 44 -75 73 -125 29 -49 62 -107 74 -127 27 -49 31 -56 206 -358 81 -140
188 -325 237 -411 l91 -157 146 0 146 0 0 2344 c0 1289 -2 2344 -5 2345 -19 3
-210 3 -232 1z"/>
</g>
</svg>
